<svg width="174" height="128" viewBox="0 0 174 128" fill="none" xmlns="http://www.w3.org/2000/svg">
<path d="M65.64 80.36C63.5867 80.36 61.72 79.8933 60.04 78.96C58.3867 78.0267 57.08 76.7067 56.12 75C55.1867 73.2667 54.72 71.2667 54.72 69C54.72 66.76 55.2 64.7867 56.16 63.08C57.1467 61.3467 58.48 60.0267 60.16 59.12C61.84 58.1867 63.72 57.72 65.8 57.72C67.88 57.72 69.76 58.1867 71.44 59.12C73.12 60.0267 74.44 61.3333 75.4 63.04C76.3867 64.7467 76.88 66.7333 76.88 69C76.88 71.2667 76.3733 73.2667 75.36 75C74.3733 76.7067 73.0267 78.0267 71.32 78.96C69.6133 79.8933 67.72 80.36 65.64 80.36ZM65.64 77.16C66.9467 77.16 68.1733 76.8533 69.32 76.24C70.4667 75.6267 71.3867 74.7067 72.08 73.48C72.8 72.2533 73.16 70.76 73.16 69C73.16 67.24 72.8133 65.7467 72.12 64.52C71.4267 63.2933 70.52 62.3867 69.4 61.8C68.28 61.1867 67.0667 60.88 65.76 60.88C64.4267 60.88 63.2 61.1867 62.08 61.8C60.9867 62.3867 60.1067 63.2933 59.44 64.52C58.7733 65.7467 58.44 67.24 58.44 69C58.44 70.7867 58.76 72.2933 59.4 73.52C60.0667 74.7467 60.9467 75.6667 62.04 76.28C63.1333 76.8667 64.3333 77.16 65.64 77.16ZM85.3059 50.4V80H81.6659V50.4H85.3059ZM95.1497 50.4V80H91.5097V50.4H95.1497ZM99.9934 68.96C99.9934 66.72 100.447 64.76 101.353 63.08C102.26 61.3733 103.5 60.0533 105.073 59.12C106.673 58.1867 108.447 57.72 110.393 57.72C112.313 57.72 113.98 58.1333 115.393 58.96C116.807 59.7867 117.86 60.8267 118.553 62.08V58.08H122.233V80H118.553V75.92C117.833 77.2 116.753 78.2667 115.313 79.12C113.9 79.9467 112.247 80.36 110.353 80.36C108.407 80.36 106.647 79.88 105.073 78.92C103.5 77.96 102.26 76.6133 101.353 74.88C100.447 73.1467 99.9934 71.1733 99.9934 68.96ZM118.553 69C118.553 67.3467 118.22 65.9067 117.553 64.68C116.887 63.4533 115.98 62.52 114.833 61.88C113.713 61.2133 112.473 60.88 111.113 60.88C109.753 60.88 108.513 61.2 107.393 61.84C106.273 62.48 105.38 63.4133 104.713 64.64C104.047 65.8667 103.713 67.3067 103.713 68.96C103.713 70.64 104.047 72.1067 104.713 73.36C105.38 74.5867 106.273 75.5333 107.393 76.2C108.513 76.84 109.753 77.16 111.113 77.16C112.473 77.16 113.713 76.84 114.833 76.2C115.98 75.5333 116.887 74.5867 117.553 73.36C118.22 72.1067 118.553 70.6533 118.553 69ZM132.025 62.16C132.771 60.8533 133.865 59.7867 135.305 58.96C136.745 58.1333 138.385 57.72 140.225 57.72C142.198 57.72 143.971 58.1867 145.545 59.12C147.118 60.0533 148.358 61.3733 149.265 63.08C150.171 64.76 150.625 66.72 150.625 68.96C150.625 71.1733 150.171 73.1467 149.265 74.88C148.358 76.6133 147.105 77.96 145.505 78.92C143.931 79.88 142.171 80.36 140.225 80.36C138.331 80.36 136.665 79.9467 135.225 79.12C133.811 78.2933 132.745 77.24 132.025 75.96V80H128.385V50.4H132.025V62.16ZM146.905 68.96C146.905 67.3067 146.571 65.8667 145.905 64.64C145.238 63.4133 144.331 62.48 143.185 61.84C142.065 61.2 140.825 60.88 139.465 60.88C138.131 60.88 136.891 61.2133 135.745 61.88C134.625 62.52 133.718 63.4667 133.025 64.72C132.358 65.9467 132.025 67.3733 132.025 69C132.025 70.6533 132.358 72.1067 133.025 73.36C133.718 74.5867 134.625 75.5333 135.745 76.2C136.891 76.84 138.131 77.16 139.465 77.16C140.825 77.16 142.065 76.84 143.185 76.2C144.331 75.5333 145.238 74.5867 145.905 73.36C146.571 72.1067 146.905 70.64 146.905 68.96ZM163.176 80.36C161.496 80.36 159.989 80.08 158.656 79.52C157.323 78.9333 156.269 78.1333 155.496 77.12C154.723 76.08 154.296 74.8933 154.216 73.56H157.976C158.083 74.6533 158.589 75.5467 159.496 76.24C160.429 76.9333 161.643 77.28 163.136 77.28C164.523 77.28 165.616 76.9733 166.416 76.36C167.216 75.7467 167.616 74.9733 167.616 74.04C167.616 73.08 167.189 72.3733 166.336 71.92C165.483 71.44 164.163 70.9733 162.376 70.52C160.749 70.0933 159.416 69.6667 158.376 69.24C157.363 68.7867 156.483 68.1333 155.736 67.28C155.016 66.4 154.656 65.2533 154.656 63.84C154.656 62.72 154.989 61.6933 155.656 60.76C156.323 59.8267 157.269 59.0933 158.496 58.56C159.723 58 161.123 57.72 162.696 57.72C165.123 57.72 167.083 58.3333 168.576 59.56C170.069 60.7867 170.869 62.4667 170.976 64.6H167.336C167.256 63.4533 166.789 62.5333 165.936 61.84C165.109 61.1467 163.989 60.8 162.576 60.8C161.269 60.8 160.229 61.08 159.456 61.64C158.683 62.2 158.296 62.9333 158.296 63.84C158.296 64.56 158.523 65.16 158.976 65.64C159.456 66.0933 160.043 66.4667 160.736 66.76C161.456 67.0267 162.443 67.3333 163.696 67.68C165.269 68.1067 166.549 68.5333 167.536 68.96C168.523 69.36 169.363 69.9733 170.056 70.8C170.776 71.6267 171.149 72.7067 171.176 74.04C171.176 75.24 170.843 76.32 170.176 77.28C169.509 78.24 168.563 79 167.336 79.56C166.136 80.0933 164.749 80.36 163.176 80.36Z" fill="white"/>
<path d="M65.5552 0C86.5887 0 102.953 7.50595 114.288 22.3281C114.525 22.6384 114.459 23.0874 114.145 23.3211L92.1409 39.6985C91.8525 39.9139 91.4473 39.87 91.2064 39.6035C84.1356 31.8347 76.2035 28.2606 66.1431 28.1803C66.1248 28.1803 66.1064 28.1803 66.0882 28.1803C46.2813 25.9935 27.6572 31.6704 13.6106 44.1962C8.69353 48.5808 4.56134 53.6736 1.31251 59.2593C0.940174 59.9019 -0.0491972 59.6098 0.0019079 58.8687C2.41845 24.9822 29.7854 0.00730867 65.5517 0.00730867L65.5552 0Z" fill="url(#paint0_linear_499_597)"/>
<path d="M3.06485 87.7536C3.02469 87.6551 3.01014 87.5492 3.01744 87.4433C3.78036 73.9318 9.71222 61.625 19.915 52.5273C25.1752 47.836 31.2347 44.3058 37.8273 42.0131C38.4552 41.7941 39.0027 42.4877 38.6486 43.0499C35.0895 48.7305 33.0162 55.6816 33.0162 63.2679V63.7607C33.0162 73.5083 36.1189 82.4708 41.7514 88.9911C47.6577 95.829 55.9697 99.5967 65.1576 99.5967C69.5527 99.5967 73.3966 98.8885 76.8133 97.6727C77.4521 97.4464 78.0216 98.1473 77.6493 98.7168C68.6949 112.411 53.3305 121.235 35.5203 121.885C35.4035 121.888 35.2904 121.866 35.1845 121.819C20.4699 115.029 8.96393 102.886 3.06128 87.7536H3.06485Z" fill="url(#paint1_linear_499_597)"/>
<path d="M63.838 127.776H63.8088C63.075 127.776 62.8415 126.772 63.5022 126.451C67.9848 124.253 72.1974 121.54 76.0339 118.346C84.8423 111.008 91.391 101.355 95.0231 90.549C95.1728 90.0999 95.713 89.9211 96.0963 90.2023L114.71 103.688C115.035 103.922 115.097 104.385 114.848 104.699C102.346 120.416 85.9849 127.783 63.8417 127.783L63.838 127.776Z" fill="url(#paint2_linear_499_597)"/>
<defs>
<linearGradient id="paint0_linear_499_597" x1="57.2153" y1="0" x2="57.2153" y2="59.6136" gradientUnits="userSpaceOnUse">
<stop stop-color="#00B6D0"/>
<stop offset="1" stop-color="#00737D"/>
</linearGradient>
<linearGradient id="paint1_linear_499_597" x1="40.3916" y1="41.9717" x2="40.3916" y2="121.885" gradientUnits="userSpaceOnUse">
<stop stop-color="#00B6D0"/>
<stop offset="1" stop-color="#00737D"/>
</linearGradient>
<linearGradient id="paint2_linear_499_597" x1="89.0569" y1="90.0674" x2="89.0569" y2="127.783" gradientUnits="userSpaceOnUse">
<stop stop-color="#00B6D0"/>
<stop offset="1" stop-color="#00737D"/>
</linearGradient>
</defs>
</svg>
