<svg width="178" height="128" viewBox="0 0 178 128" fill="none" xmlns="http://www.w3.org/2000/svg">
<path d="M69.64 80.36C67.5867 80.36 65.72 79.8933 64.04 78.96C62.3867 78.0267 61.08 76.7067 60.12 75C59.1867 73.2667 58.72 71.2667 58.72 69C58.72 66.76 59.2 64.7867 60.16 63.08C61.1467 61.3467 62.48 60.0267 64.16 59.12C65.84 58.1867 67.72 57.72 69.8 57.72C71.88 57.72 73.76 58.1867 75.44 59.12C77.12 60.0267 78.44 61.3333 79.4 63.04C80.3867 64.7467 80.88 66.7333 80.88 69C80.88 71.2667 80.3733 73.2667 79.36 75C78.3733 76.7067 77.0267 78.0267 75.32 78.96C73.6133 79.8933 71.72 80.36 69.64 80.36ZM69.64 77.16C70.9467 77.16 72.1733 76.8533 73.32 76.24C74.4667 75.6267 75.3867 74.7067 76.08 73.48C76.8 72.2533 77.16 70.76 77.16 69C77.16 67.24 76.8133 65.7467 76.12 64.52C75.4267 63.2933 74.52 62.3867 73.4 61.8C72.28 61.1867 71.0667 60.88 69.76 60.88C68.4267 60.88 67.2 61.1867 66.08 61.8C64.9867 62.3867 64.1067 63.2933 63.44 64.52C62.7733 65.7467 62.44 67.24 62.44 69C62.44 70.7867 62.76 72.2933 63.4 73.52C64.0667 74.7467 64.9467 75.6667 66.04 76.28C67.1333 76.8667 68.3333 77.16 69.64 77.16ZM89.3059 50.4V80H85.6659V50.4H89.3059ZM99.1497 50.4V80H95.5097V50.4H99.1497ZM103.993 68.96C103.993 66.72 104.447 64.76 105.353 63.08C106.26 61.3733 107.5 60.0533 109.073 59.12C110.673 58.1867 112.447 57.72 114.393 57.72C116.313 57.72 117.98 58.1333 119.393 58.96C120.807 59.7867 121.86 60.8267 122.553 62.08V58.08H126.233V80H122.553V75.92C121.833 77.2 120.753 78.2667 119.313 79.12C117.9 79.9467 116.247 80.36 114.353 80.36C112.407 80.36 110.647 79.88 109.073 78.92C107.5 77.96 106.26 76.6133 105.353 74.88C104.447 73.1467 103.993 71.1733 103.993 68.96ZM122.553 69C122.553 67.3467 122.22 65.9067 121.553 64.68C120.887 63.4533 119.98 62.52 118.833 61.88C117.713 61.2133 116.473 60.88 115.113 60.88C113.753 60.88 112.513 61.2 111.393 61.84C110.273 62.48 109.38 63.4133 108.713 64.64C108.047 65.8667 107.713 67.3067 107.713 68.96C107.713 70.64 108.047 72.1067 108.713 73.36C109.38 74.5867 110.273 75.5333 111.393 76.2C112.513 76.84 113.753 77.16 115.113 77.16C116.473 77.16 117.713 76.84 118.833 76.2C119.98 75.5333 120.887 74.5867 121.553 73.36C122.22 72.1067 122.553 70.6533 122.553 69ZM136.025 62.16C136.771 60.8533 137.865 59.7867 139.305 58.96C140.745 58.1333 142.385 57.72 144.225 57.72C146.198 57.72 147.971 58.1867 149.545 59.12C151.118 60.0533 152.358 61.3733 153.265 63.08C154.171 64.76 154.625 66.72 154.625 68.96C154.625 71.1733 154.171 73.1467 153.265 74.88C152.358 76.6133 151.105 77.96 149.505 78.92C147.931 79.88 146.171 80.36 144.225 80.36C142.331 80.36 140.665 79.9467 139.225 79.12C137.811 78.2933 136.745 77.24 136.025 75.96V80H132.385V50.4H136.025V62.16ZM150.905 68.96C150.905 67.3067 150.571 65.8667 149.905 64.64C149.238 63.4133 148.331 62.48 147.185 61.84C146.065 61.2 144.825 60.88 143.465 60.88C142.131 60.88 140.891 61.2133 139.745 61.88C138.625 62.52 137.718 63.4667 137.025 64.72C136.358 65.9467 136.025 67.3733 136.025 69C136.025 70.6533 136.358 72.1067 137.025 73.36C137.718 74.5867 138.625 75.5333 139.745 76.2C140.891 76.84 142.131 77.16 143.465 77.16C144.825 77.16 146.065 76.84 147.185 76.2C148.331 75.5333 149.238 74.5867 149.905 73.36C150.571 72.1067 150.905 70.64 150.905 68.96ZM167.176 80.36C165.496 80.36 163.989 80.08 162.656 79.52C161.323 78.9333 160.269 78.1333 159.496 77.12C158.723 76.08 158.296 74.8933 158.216 73.56H161.976C162.083 74.6533 162.589 75.5467 163.496 76.24C164.429 76.9333 165.643 77.28 167.136 77.28C168.523 77.28 169.616 76.9733 170.416 76.36C171.216 75.7467 171.616 74.9733 171.616 74.04C171.616 73.08 171.189 72.3733 170.336 71.92C169.483 71.44 168.163 70.9733 166.376 70.52C164.749 70.0933 163.416 69.6667 162.376 69.24C161.363 68.7867 160.483 68.1333 159.736 67.28C159.016 66.4 158.656 65.2533 158.656 63.84C158.656 62.72 158.989 61.6933 159.656 60.76C160.323 59.8267 161.269 59.0933 162.496 58.56C163.723 58 165.123 57.72 166.696 57.72C169.123 57.72 171.083 58.3333 172.576 59.56C174.069 60.7867 174.869 62.4667 174.976 64.6H171.336C171.256 63.4533 170.789 62.5333 169.936 61.84C169.109 61.1467 167.989 60.8 166.576 60.8C165.269 60.8 164.229 61.08 163.456 61.64C162.683 62.2 162.296 62.9333 162.296 63.84C162.296 64.56 162.523 65.16 162.976 65.64C163.456 66.0933 164.043 66.4667 164.736 66.76C165.456 67.0267 166.443 67.3333 167.696 67.68C169.269 68.1067 170.549 68.5333 171.536 68.96C172.523 69.36 173.363 69.9733 174.056 70.8C174.776 71.6267 175.149 72.7067 175.176 74.04C175.176 75.24 174.843 76.32 174.176 77.28C173.509 78.24 172.563 79 171.336 79.56C170.136 80.0933 168.749 80.36 167.176 80.36Z" fill="black"/>
<path d="M65.5552 0C86.5887 0 102.953 7.50595 114.288 22.3281C114.525 22.6384 114.459 23.0874 114.145 23.3211L92.1409 39.6985C91.8525 39.9139 91.4473 39.87 91.2064 39.6035C84.1356 31.8347 76.2035 28.2606 66.1431 28.1803C66.1248 28.1803 66.1064 28.1803 66.0882 28.1803C46.2813 25.9935 27.6572 31.6704 13.6106 44.1962C8.69353 48.5808 4.56134 53.6736 1.31251 59.2593C0.940174 59.9019 -0.0491972 59.6098 0.0019079 58.8687C2.41845 24.9822 29.7854 0.00730867 65.5517 0.00730867L65.5552 0Z" fill="url(#paint0_linear_499_598)"/>
<path d="M3.06485 87.7536C3.02469 87.6551 3.01014 87.5492 3.01744 87.4433C3.78036 73.9318 9.71222 61.625 19.915 52.5273C25.1752 47.836 31.2347 44.3058 37.8273 42.0131C38.4552 41.7941 39.0027 42.4877 38.6486 43.0499C35.0895 48.7305 33.0162 55.6816 33.0162 63.2679V63.7607C33.0162 73.5083 36.1189 82.4708 41.7514 88.9911C47.6577 95.829 55.9697 99.5967 65.1576 99.5967C69.5527 99.5967 73.3966 98.8885 76.8133 97.6727C77.4521 97.4464 78.0216 98.1473 77.6493 98.7168C68.6949 112.411 53.3305 121.235 35.5203 121.885C35.4035 121.888 35.2904 121.866 35.1845 121.819C20.4699 115.029 8.96393 102.886 3.06128 87.7536H3.06485Z" fill="url(#paint1_linear_499_598)"/>
<path d="M63.838 127.776H63.8088C63.075 127.776 62.8415 126.772 63.5022 126.451C67.9848 124.253 72.1974 121.54 76.0339 118.346C84.8423 111.008 91.391 101.355 95.0231 90.549C95.1728 90.0999 95.713 89.9211 96.0963 90.2023L114.71 103.688C115.035 103.922 115.097 104.385 114.848 104.699C102.346 120.416 85.9849 127.783 63.8417 127.783L63.838 127.776Z" fill="url(#paint2_linear_499_598)"/>
<defs>
<linearGradient id="paint0_linear_499_598" x1="57.2153" y1="0" x2="57.2153" y2="59.6136" gradientUnits="userSpaceOnUse">
<stop stop-color="#00B6D0"/>
<stop offset="1" stop-color="#00737D"/>
</linearGradient>
<linearGradient id="paint1_linear_499_598" x1="40.3916" y1="41.9717" x2="40.3916" y2="121.885" gradientUnits="userSpaceOnUse">
<stop stop-color="#00B6D0"/>
<stop offset="1" stop-color="#00737D"/>
</linearGradient>
<linearGradient id="paint2_linear_499_598" x1="89.0569" y1="90.0674" x2="89.0569" y2="127.783" gradientUnits="userSpaceOnUse">
<stop stop-color="#00B6D0"/>
<stop offset="1" stop-color="#00737D"/>
</linearGradient>
</defs>
</svg>
